<svg width="1681" height="905" viewBox="0 0 1681 905" fill="none" xmlns="http://www.w3.org/2000/svg">
<path d="M0 0H1681V904.432C1078.5 904.432 508 904.432 0 904.432V0Z" fill="url(#paint0_radial_1221_73)"/>
<circle cx="454" cy="46" r="6" fill="#1E1E1E"/>
<circle cx="502" cy="79" r="6" fill="#1E1E1E"/>
<circle cx="382" cy="141" r="6" fill="#1E1E1E"/>
<circle cx="591" cy="195" r="6" fill="#D5D5D5"/>
<circle cx="611" cy="24" r="6" fill="#D5D5D5"/>
<path d="M450.499 163C450.499 166.314 447.813 169 444.499 169C441.185 169 438.499 166.314 438.499 163C438.499 159.686 312 20.5004 444.499 157C447.813 157 450.499 159.686 450.499 163Z" fill="#D5D5D5"/>
<path d="M1387.49 735.861C1387.49 739.174 1384.8 741.861 1381.49 741.861C1378.17 741.861 1375.49 739.174 1375.49 735.861C1375.49 732.547 1248.99 593.361 1381.49 729.861C1384.8 729.861 1387.49 732.547 1387.49 735.861Z" fill="#D5D5D5"/>
<path d="M1516.19 352.097C1517.8 355.349 1516.46 359.288 1513.21 360.895C1509.96 362.503 1506.02 361.169 1504.41 357.917C1502.81 354.665 1311.16 279.431 1507.39 349.119C1510.64 347.512 1514.58 348.845 1516.19 352.097Z" fill="#D5D5D5"/>
<path d="M118.485 548.861C118.485 552.174 115.799 554.861 112.485 554.861C109.172 554.861 106.485 552.174 106.485 548.861C106.485 545.547 -20.0138 406.361 112.485 542.861C115.799 542.861 118.485 545.547 118.485 548.861Z" fill="#D5D5D5"/>
<circle cx="1090" cy="12" r="6" fill="#1E1E1E"/>
<circle cx="927" cy="10" r="6" fill="#1E1E1E"/>
<circle cx="805" cy="28" r="6" fill="#1E1E1E"/>
<circle cx="1016" cy="101" r="6" fill="#1E1E1E"/>
<circle cx="1442" cy="6" r="6" fill="#1E1E1E"/>
<circle cx="1256" cy="29" r="6" fill="#D5D5D5"/>
<circle cx="1366" cy="91" r="6" fill="#1E1E1E"/>
<circle cx="1405" cy="165" r="6" fill="#1E1E1E"/>
<circle cx="1393" cy="273" r="6" fill="#1E1E1E"/>
<circle cx="1454" cy="261" r="6" fill="#D5D5D5"/>
<circle cx="1381" cy="355" r="6" fill="#1E1E1E"/>
<circle cx="1527" cy="183" r="6" fill="#1E1E1E"/>
<circle cx="1466" cy="390" r="6" fill="#1E1E1E"/>
<circle cx="1399" cy="490" r="6" fill="#1E1E1E"/>
<circle cx="1520" cy="22" r="6" fill="#1E1E1E"/>
<circle cx="1513" cy="502" r="6" fill="#1E1E1E"/>
<circle cx="1634" cy="34" r="6" fill="#1E1E1E"/>
<circle cx="1539" cy="455" r="6" fill="#1E1E1E"/>
<circle cx="1360" cy="574" r="6" fill="#D5D5D5"/>
<circle cx="1481" cy="106" r="6" fill="#D5D5D5"/>
<circle cx="1399" cy="633" r="6" fill="#1E1E1E"/>
<circle cx="1278" cy="682" r="6" fill="#1E1E1E"/>
<circle cx="1151" cy="740" r="6" fill="#D5D5D5"/>
<circle cx="1090" cy="721" r="6" fill="#1E1E1E"/>
<circle cx="1102" cy="780" r="6" fill="#1E1E1E"/>
<circle cx="947" cy="746" r="6" fill="#1E1E1E"/>
<circle cx="981" cy="686" r="6" fill="#1E1E1E"/>
<circle cx="840" cy="752" r="6" fill="#D5D5D5"/>
<circle cx="740" cy="807" r="6" fill="#1E1E1E"/>
<circle cx="1354" cy="782" r="6" fill="#1E1E1E"/>
<circle cx="724" cy="291" r="6" fill="#1E1E1E"/>
<circle cx="1616" cy="365" r="6" fill="#1E1E1E"/>
<circle cx="706" cy="101" r="6" fill="#1E1E1E"/>
<circle cx="1598" cy="175" r="6" fill="#1E1E1E"/>
<circle cx="712" cy="175" r="6" fill="#1E1E1E"/>
<circle cx="1604" cy="249" r="6" fill="#1E1E1E"/>
<circle cx="245" cy="226" r="6" fill="#1E1E1E"/>
<circle cx="157" cy="207" r="6" fill="#1E1E1E"/>
<circle cx="225" cy="153" r="6" fill="#1E1E1E"/>
<circle cx="18" cy="226" r="6" fill="#1E1E1E"/>
<circle cx="28" cy="279" r="6" fill="#1E1E1E"/>
<circle cx="46" cy="397" r="6" fill="#1E1E1E"/>
<circle cx="6" cy="425" r="6" fill="#D5D5D5"/>
<circle cx="192" cy="561" r="6" fill="#D5D5D5"/>
<circle cx="61" cy="567" r="6" fill="#1E1E1E"/>
<circle cx="231" cy="639" r="6" fill="#1E1E1E"/>
<circle cx="319" cy="584" r="6" fill="#1E1E1E"/>
<circle cx="394" cy="658" r="6" fill="#1E1E1E"/>
<circle cx="475" cy="580" r="6" fill="#1E1E1E"/>
<circle cx="538" cy="633" r="6" fill="#1E1E1E"/>
<circle cx="629" cy="584" r="6" fill="#1E1E1E"/>
<circle cx="617" cy="670" r="6" fill="#D5D5D5"/>
<circle cx="544" cy="714" r="6" fill="#1E1E1E"/>
<circle cx="487" cy="752" r="6" fill="#1E1E1E"/>
<circle cx="313" cy="742" r="6" fill="#1E1E1E"/>
<circle cx="352" cy="794" r="6" fill="#D5D5D5"/>
<circle cx="319" cy="798" r="6" fill="#1E1E1E"/>
<circle cx="251" cy="792" r="6" fill="#1E1E1E"/>
<circle cx="602" cy="813" r="6" fill="#1E1E1E"/>
<circle cx="663" cy="764" r="6" fill="#1E1E1E"/>
<circle cx="746" cy="726" r="6" fill="#1E1E1E"/>
<circle cx="734" cy="664" r="6" fill="#1E1E1E"/>
<circle cx="712" cy="507" r="6" fill="#1E1E1E"/>
<circle cx="1604" cy="581" r="6" fill="#1E1E1E"/>
<circle cx="740" cy="419" r="6" fill="#1E1E1E"/>
<circle cx="1632" cy="493" r="6" fill="#1E1E1E"/>
<circle cx="463" cy="207" r="6" fill="#1E1E1E"/>
<circle cx="275" cy="46" r="6" fill="#1E1E1E"/>
<circle cx="388" cy="608" r="6" fill="#1E1E1E"/>
<g clip-path="url(#clip0_1221_73)">
<path d="M0 696.415L239.893 687.207L524.5 570.267L720.554 743.289L960.446 664.607L1200.34 631.963L1441.11 614.385L1681 642.007V904.837H1441.11H1200.34H960.446H720.554H480.661H239.893H0V696.415Z" fill="#362038"/>
<path d="M0 664.607L239.893 738.266L480.661 735.755L720.554 646.192L960.446 743.289L1200.34 675.489L1441.11 670.466L1681 744.963V904.837H1441.11H1200.34H960.446H720.554H480.661H239.893H0V664.607Z" fill="#532A57"/>
<path d="M0 808.578L239.893 697.252L480.661 733.245L720.554 732.408L960.446 745.8L1200.34 729.896L1441.11 795.185L1681 702.274V904.837H1441.11H1200.34H960.446H720.554H480.661H239.893H0V808.578Z" fill="#713479"/>
<path d="M0 794.348L239.893 797.696L480.661 828.667L720.554 758.355L960.446 806.067L1200.34 800.207L1441.11 764.215L1681 845.407V904.837H1441.11H1200.34H960.446H720.554H480.661H239.893H0V794.348Z" fill="#903D9D"/>
<path d="M0 880.563L239.893 868.007L480.661 868.844L720.554 880.563L960.446 867.17L1200.34 870.519L1441.11 869.682L1681 873.867V904.837H1441.11H1200.34H960.446H720.554H480.661H239.893H0V880.563Z" fill="#B046C2"/>
</g>
<defs>
<radialGradient id="paint0_radial_1221_73" cx="0" cy="0" r="1" gradientUnits="userSpaceOnUse" gradientTransform="translate(-30.5001 68.5) rotate(25.8848) scale(1902.36 3491.12)">
<stop stop-color="#5D2567"/>
<stop offset="0.140549" stop-color="#121112"/>
<stop offset="1" stop-color="#121112"/>
</radialGradient>
<clipPath id="clip0_1221_73">
<rect width="1681" height="904" fill="white"/>
</clipPath>
</defs>
</svg>
