<svg width="2923" height="1943" viewBox="0 0 2923 1943" fill="none" xmlns="http://www.w3.org/2000/svg">
<path d="M1518.38 1083.73C1518.38 996.957 1501.29 911.038 1468.09 830.873C1434.88 750.709 1386.21 677.87 1324.86 616.514C1263.5 555.159 1190.66 506.49 1110.5 473.284C1030.34 440.079 944.416 422.989 857.646 422.989V763.939C899.641 763.939 941.225 772.21 980.024 788.281C1018.82 804.352 1054.08 827.908 1083.77 857.603C1113.47 887.298 1137.02 922.551 1153.09 961.349C1169.16 1000.15 1177.43 1041.73 1177.43 1083.73H1518.38Z" fill="#B09BDD"/>
<path d="M1177.08 1083.73C1177.08 1170.5 1194.17 1256.42 1227.37 1336.58C1260.58 1416.74 1309.25 1489.58 1370.6 1550.94C1431.96 1612.29 1504.8 1660.96 1584.96 1694.17C1665.13 1727.37 1751.05 1744.46 1837.82 1744.46V1403.16C1795.87 1403.16 1754.33 1394.9 1715.57 1378.85C1676.82 1362.79 1641.6 1339.26 1611.94 1309.6C1582.28 1279.94 1558.75 1244.72 1542.7 1205.97C1526.64 1167.21 1518.38 1125.68 1518.38 1083.73L1177.08 1083.73Z" fill="#B09BDD"/>
<path d="M2500.01 1083.73C2500.01 908.488 2430.4 740.427 2306.49 616.514C2182.57 492.602 2014.51 422.989 1839.27 422.989C1664.03 422.989 1495.97 492.602 1372.06 616.514C1248.15 740.427 1178.54 908.488 1178.54 1083.73L1519.49 1083.73C1519.49 998.914 1553.18 917.574 1613.15 857.603C1673.12 797.631 1754.46 763.939 1839.27 763.939C1924.09 763.939 2005.43 797.631 2065.4 857.603C2125.37 917.574 2159.06 998.914 2159.06 1083.73H2500.01Z" fill="white"/>
<path d="M198.367 1083.73C198.367 1258.97 267.98 1427.03 391.893 1550.94C515.805 1674.85 683.867 1744.46 859.105 1744.46C1034.34 1744.46 1202.41 1674.85 1326.32 1550.94C1450.23 1427.03 1519.84 1258.97 1519.84 1083.73L1178.89 1083.73C1178.89 1168.54 1145.2 1249.88 1085.23 1309.85C1025.26 1369.82 943.918 1403.51 859.105 1403.51C774.292 1403.51 692.953 1369.82 632.981 1309.85C573.009 1249.88 539.317 1168.54 539.317 1083.73L198.367 1083.73Z" fill="white"/>
<path d="M2160.16 1083.73H2500.01V1772.91C2500.01 1866.75 2423.93 1942.83 2330.09 1942.83C2236.24 1942.83 2160.16 1866.75 2160.16 1772.91V1083.73Z" fill="white"/>
<path d="M198.367 170.654C198.367 76.4046 274.772 0 369.021 0C463.271 0 539.676 76.4045 539.676 170.654V1083.73H198.367V170.654Z" fill="white"/>
<path d="M857.646 422.989L857.646 764.297L170.654 764.297C76.4043 764.297 -0.000183105 687.893 -0.000183105 593.643C-0.000183105 499.393 76.4044 422.989 170.654 422.989L428.823 422.989L857.646 422.989Z" fill="#B09BDD"/>
<path d="M1837.81 1744.46V1403.16L2752.35 1403.16C2846.6 1403.16 2923 1479.56 2923 1573.81C2923 1668.06 2846.6 1744.46 2752.35 1744.46H2380.41L1837.81 1744.46Z" fill="#B09BDD"/>
</svg>
